<mxfile host="app.diagrams.net" modified="2023-02-14T09:35:29.417Z" agent="5.0 (Windows NT 10.0; Win64; x64) AppleWebKit/537.36 (KHTML, like Gecko) Chrome/109.0.0.0 Safari/537.36" etag="g2rBgn5xXi85ZvmKkuim" version="20.8.20" type="github">
  <diagram name="第 1 页" id="aYHBjUEOff3fImSK_q_Y">
    <mxGraphModel dx="2306" dy="1000" grid="1" gridSize="10" guides="1" tooltips="1" connect="1" arrows="1" fold="1" page="1" pageScale="1" pageWidth="413" pageHeight="291" math="0" shadow="0">
      <root>
        <mxCell id="0" />
        <mxCell id="1" parent="0" />
        <mxCell id="oYAKj_EQ9goThP0TJi5V-1" value="Map" style="rounded=1;whiteSpace=wrap;html=1;fontSize=18;strokeColor=#6666FF;dashed=1;" vertex="1" parent="1">
          <mxGeometry x="-230" y="46" width="60" height="30" as="geometry" />
        </mxCell>
        <mxCell id="oYAKj_EQ9goThP0TJi5V-2" value="List" style="rounded=1;whiteSpace=wrap;html=1;fontSize=18;dashed=1;strokeColor=#6666FF;" vertex="1" parent="1">
          <mxGeometry x="100" y="10" width="60" height="30" as="geometry" />
        </mxCell>
        <mxCell id="oYAKj_EQ9goThP0TJi5V-3" value="Set" style="rounded=1;whiteSpace=wrap;html=1;fontSize=18;dashed=1;strokeColor=#6666FF;" vertex="1" parent="1">
          <mxGeometry x="550" y="10" width="60" height="30" as="geometry" />
        </mxCell>
        <mxCell id="oYAKj_EQ9goThP0TJi5V-24" style="rounded=0;orthogonalLoop=1;jettySize=auto;html=1;fontSize=18;" edge="1" parent="1" source="oYAKj_EQ9goThP0TJi5V-4" target="oYAKj_EQ9goThP0TJi5V-1">
          <mxGeometry relative="1" as="geometry" />
        </mxCell>
        <mxCell id="oYAKj_EQ9goThP0TJi5V-4" value="ConcurrentMap" style="rounded=1;whiteSpace=wrap;html=1;fontSize=18;" vertex="1" parent="1">
          <mxGeometry x="-275" y="116" width="150" height="30" as="geometry" />
        </mxCell>
        <mxCell id="oYAKj_EQ9goThP0TJi5V-32" value="" style="edgeStyle=none;rounded=0;orthogonalLoop=1;jettySize=auto;html=1;fontSize=18;" edge="1" parent="1" source="oYAKj_EQ9goThP0TJi5V-5" target="oYAKj_EQ9goThP0TJi5V-2">
          <mxGeometry relative="1" as="geometry" />
        </mxCell>
        <mxCell id="oYAKj_EQ9goThP0TJi5V-5" value="CopyOnWriteArrayList" style="rounded=1;whiteSpace=wrap;html=1;fontSize=18;" vertex="1" parent="1">
          <mxGeometry x="40" y="70" width="180" height="30" as="geometry" />
        </mxCell>
        <mxCell id="oYAKj_EQ9goThP0TJi5V-33" style="edgeStyle=none;rounded=0;orthogonalLoop=1;jettySize=auto;html=1;fontSize=18;" edge="1" parent="1" source="oYAKj_EQ9goThP0TJi5V-6" target="oYAKj_EQ9goThP0TJi5V-3">
          <mxGeometry relative="1" as="geometry" />
        </mxCell>
        <mxCell id="oYAKj_EQ9goThP0TJi5V-6" value="AbstractSet" style="rounded=1;whiteSpace=wrap;html=1;fontSize=18;" vertex="1" parent="1">
          <mxGeometry x="490" y="66" width="180" height="30" as="geometry" />
        </mxCell>
        <mxCell id="oYAKj_EQ9goThP0TJi5V-28" style="edgeStyle=none;rounded=0;orthogonalLoop=1;jettySize=auto;html=1;entryX=0.111;entryY=1;entryDx=0;entryDy=0;fontSize=18;entryPerimeter=0;" edge="1" parent="1" source="oYAKj_EQ9goThP0TJi5V-7" target="oYAKj_EQ9goThP0TJi5V-4">
          <mxGeometry relative="1" as="geometry" />
        </mxCell>
        <mxCell id="oYAKj_EQ9goThP0TJi5V-7" value="ConcurrentNavigableMap" style="rounded=1;whiteSpace=wrap;html=1;fontSize=18;" vertex="1" parent="1">
          <mxGeometry x="-360" y="182" width="200" height="30" as="geometry" />
        </mxCell>
        <mxCell id="oYAKj_EQ9goThP0TJi5V-34" style="edgeStyle=none;rounded=0;orthogonalLoop=1;jettySize=auto;html=1;fontSize=18;" edge="1" parent="1" source="oYAKj_EQ9goThP0TJi5V-8" target="oYAKj_EQ9goThP0TJi5V-6">
          <mxGeometry relative="1" as="geometry" />
        </mxCell>
        <mxCell id="oYAKj_EQ9goThP0TJi5V-8" value="ConcurrentSkipListSet" style="rounded=1;whiteSpace=wrap;html=1;fontSize=18;" vertex="1" parent="1">
          <mxGeometry x="260" y="120" width="180" height="30" as="geometry" />
        </mxCell>
        <mxCell id="oYAKj_EQ9goThP0TJi5V-35" style="edgeStyle=none;rounded=0;orthogonalLoop=1;jettySize=auto;html=1;fontSize=18;" edge="1" parent="1" source="oYAKj_EQ9goThP0TJi5V-9" target="oYAKj_EQ9goThP0TJi5V-6">
          <mxGeometry relative="1" as="geometry" />
        </mxCell>
        <mxCell id="oYAKj_EQ9goThP0TJi5V-9" value="CopyOnWriteArraySet" style="rounded=1;whiteSpace=wrap;html=1;fontSize=18;" vertex="1" parent="1">
          <mxGeometry x="520" y="120" width="180" height="30" as="geometry" />
        </mxCell>
        <mxCell id="oYAKj_EQ9goThP0TJi5V-31" style="edgeStyle=none;rounded=0;orthogonalLoop=1;jettySize=auto;html=1;entryX=0.967;entryY=1;entryDx=0;entryDy=0;entryPerimeter=0;fontSize=18;" edge="1" parent="1" source="oYAKj_EQ9goThP0TJi5V-10" target="oYAKj_EQ9goThP0TJi5V-4">
          <mxGeometry relative="1" as="geometry" />
        </mxCell>
        <mxCell id="oYAKj_EQ9goThP0TJi5V-10" value="ConcurrentHashMap" style="rounded=1;whiteSpace=wrap;html=1;fontSize=18;shadow=0;glass=0;imageWidth=24;" vertex="1" parent="1">
          <mxGeometry x="-220" y="240" width="180" height="30" as="geometry" />
        </mxCell>
        <mxCell id="oYAKj_EQ9goThP0TJi5V-11" value="Collection" style="rounded=1;whiteSpace=wrap;html=1;fontSize=18;dashed=1;strokeColor=#6666FF;" vertex="1" parent="1">
          <mxGeometry x="290" y="180" width="180" height="30" as="geometry" />
        </mxCell>
        <mxCell id="oYAKj_EQ9goThP0TJi5V-12" value="Queue" style="rounded=1;whiteSpace=wrap;html=1;fontSize=18;dashed=1;strokeColor=#6666FF;" vertex="1" parent="1">
          <mxGeometry x="540" y="320" width="180" height="30" as="geometry" />
        </mxCell>
        <mxCell id="oYAKj_EQ9goThP0TJi5V-40" style="edgeStyle=none;rounded=0;orthogonalLoop=1;jettySize=auto;html=1;fontSize=18;" edge="1" parent="1" source="oYAKj_EQ9goThP0TJi5V-13" target="oYAKj_EQ9goThP0TJi5V-12">
          <mxGeometry relative="1" as="geometry" />
        </mxCell>
        <mxCell id="oYAKj_EQ9goThP0TJi5V-13" value="BlockingQueue" style="rounded=1;whiteSpace=wrap;html=1;fontSize=18;dashed=1;strokeColor=#6666FF;" vertex="1" parent="1">
          <mxGeometry x="880" y="320" width="180" height="30" as="geometry" />
        </mxCell>
        <mxCell id="oYAKj_EQ9goThP0TJi5V-37" style="edgeStyle=none;rounded=0;orthogonalLoop=1;jettySize=auto;html=1;fontSize=18;" edge="1" parent="1" source="oYAKj_EQ9goThP0TJi5V-14" target="oYAKj_EQ9goThP0TJi5V-15">
          <mxGeometry relative="1" as="geometry" />
        </mxCell>
        <mxCell id="oYAKj_EQ9goThP0TJi5V-51" style="edgeStyle=none;rounded=0;orthogonalLoop=1;jettySize=auto;html=1;fontSize=18;" edge="1" parent="1" source="oYAKj_EQ9goThP0TJi5V-14" target="oYAKj_EQ9goThP0TJi5V-12">
          <mxGeometry relative="1" as="geometry" />
        </mxCell>
        <mxCell id="oYAKj_EQ9goThP0TJi5V-14" value="AbstractQueue" style="rounded=1;whiteSpace=wrap;html=1;fontSize=18;dashed=1;" vertex="1" parent="1">
          <mxGeometry x="290" y="330" width="180" height="30" as="geometry" />
        </mxCell>
        <mxCell id="oYAKj_EQ9goThP0TJi5V-36" style="edgeStyle=none;rounded=0;orthogonalLoop=1;jettySize=auto;html=1;fontSize=18;" edge="1" parent="1" source="oYAKj_EQ9goThP0TJi5V-15" target="oYAKj_EQ9goThP0TJi5V-11">
          <mxGeometry relative="1" as="geometry" />
        </mxCell>
        <mxCell id="oYAKj_EQ9goThP0TJi5V-15" value="AbstractCollection" style="rounded=1;whiteSpace=wrap;html=1;fontSize=18;dashed=1;" vertex="1" parent="1">
          <mxGeometry x="290" y="240" width="180" height="30" as="geometry" />
        </mxCell>
        <mxCell id="oYAKj_EQ9goThP0TJi5V-43" style="edgeStyle=none;rounded=0;orthogonalLoop=1;jettySize=auto;html=1;fontSize=18;" edge="1" parent="1" source="oYAKj_EQ9goThP0TJi5V-16" target="oYAKj_EQ9goThP0TJi5V-13">
          <mxGeometry relative="1" as="geometry" />
        </mxCell>
        <mxCell id="oYAKj_EQ9goThP0TJi5V-52" style="edgeStyle=none;rounded=0;orthogonalLoop=1;jettySize=auto;html=1;fontSize=18;" edge="1" parent="1" source="oYAKj_EQ9goThP0TJi5V-16" target="oYAKj_EQ9goThP0TJi5V-14">
          <mxGeometry relative="1" as="geometry" />
        </mxCell>
        <mxCell id="oYAKj_EQ9goThP0TJi5V-16" value="ArrayBlockingQueue" style="rounded=1;whiteSpace=wrap;html=1;fontSize=18;" vertex="1" parent="1">
          <mxGeometry x="990" y="780" width="180" height="30" as="geometry" />
        </mxCell>
        <mxCell id="oYAKj_EQ9goThP0TJi5V-44" style="edgeStyle=none;rounded=0;orthogonalLoop=1;jettySize=auto;html=1;fontSize=18;startArrow=none;" edge="1" parent="1" source="oYAKj_EQ9goThP0TJi5V-21" target="oYAKj_EQ9goThP0TJi5V-13">
          <mxGeometry relative="1" as="geometry" />
        </mxCell>
        <mxCell id="oYAKj_EQ9goThP0TJi5V-46" style="edgeStyle=none;rounded=0;orthogonalLoop=1;jettySize=auto;html=1;fontSize=18;" edge="1" parent="1" source="oYAKj_EQ9goThP0TJi5V-17" target="oYAKj_EQ9goThP0TJi5V-14">
          <mxGeometry relative="1" as="geometry" />
        </mxCell>
        <mxCell id="oYAKj_EQ9goThP0TJi5V-55" style="edgeStyle=none;rounded=0;orthogonalLoop=1;jettySize=auto;html=1;fontSize=18;" edge="1" parent="1" source="oYAKj_EQ9goThP0TJi5V-17" target="oYAKj_EQ9goThP0TJi5V-23">
          <mxGeometry relative="1" as="geometry" />
        </mxCell>
        <mxCell id="oYAKj_EQ9goThP0TJi5V-17" value="SynchronousQueue" style="rounded=1;whiteSpace=wrap;html=1;fontSize=18;" vertex="1" parent="1">
          <mxGeometry x="150" y="770" width="180" height="30" as="geometry" />
        </mxCell>
        <mxCell id="oYAKj_EQ9goThP0TJi5V-47" style="edgeStyle=none;rounded=0;orthogonalLoop=1;jettySize=auto;html=1;fontSize=18;" edge="1" parent="1" source="oYAKj_EQ9goThP0TJi5V-18" target="oYAKj_EQ9goThP0TJi5V-14">
          <mxGeometry relative="1" as="geometry" />
        </mxCell>
        <mxCell id="oYAKj_EQ9goThP0TJi5V-53" style="edgeStyle=none;rounded=0;orthogonalLoop=1;jettySize=auto;html=1;fontSize=18;" edge="1" parent="1" source="oYAKj_EQ9goThP0TJi5V-18" target="oYAKj_EQ9goThP0TJi5V-23">
          <mxGeometry relative="1" as="geometry" />
        </mxCell>
        <mxCell id="oYAKj_EQ9goThP0TJi5V-18" value="LinkedBlockingDeque" style="rounded=1;whiteSpace=wrap;html=1;fontSize=18;" vertex="1" parent="1">
          <mxGeometry x="430" y="780" width="180" height="30" as="geometry" />
        </mxCell>
        <mxCell id="oYAKj_EQ9goThP0TJi5V-48" style="edgeStyle=none;rounded=0;orthogonalLoop=1;jettySize=auto;html=1;fontSize=18;" edge="1" parent="1" source="oYAKj_EQ9goThP0TJi5V-19" target="oYAKj_EQ9goThP0TJi5V-14">
          <mxGeometry relative="1" as="geometry" />
        </mxCell>
        <mxCell id="oYAKj_EQ9goThP0TJi5V-49" style="edgeStyle=none;rounded=0;orthogonalLoop=1;jettySize=auto;html=1;fontSize=18;" edge="1" parent="1" source="oYAKj_EQ9goThP0TJi5V-19" target="oYAKj_EQ9goThP0TJi5V-23">
          <mxGeometry relative="1" as="geometry" />
        </mxCell>
        <mxCell id="oYAKj_EQ9goThP0TJi5V-19" value="ConcurrentLinkedDeque" style="rounded=1;whiteSpace=wrap;html=1;fontSize=18;" vertex="1" parent="1">
          <mxGeometry x="-140" y="780" width="200" height="30" as="geometry" />
        </mxCell>
        <mxCell id="oYAKj_EQ9goThP0TJi5V-38" style="edgeStyle=none;rounded=0;orthogonalLoop=1;jettySize=auto;html=1;fontSize=18;" edge="1" parent="1" source="oYAKj_EQ9goThP0TJi5V-20" target="oYAKj_EQ9goThP0TJi5V-12">
          <mxGeometry relative="1" as="geometry" />
        </mxCell>
        <mxCell id="oYAKj_EQ9goThP0TJi5V-20" value="Deque" style="rounded=1;whiteSpace=wrap;html=1;fontSize=18;dashed=1;strokeColor=#6666FF;" vertex="1" parent="1">
          <mxGeometry x="540" y="390" width="180" height="30" as="geometry" />
        </mxCell>
        <mxCell id="oYAKj_EQ9goThP0TJi5V-41" style="edgeStyle=none;rounded=0;orthogonalLoop=1;jettySize=auto;html=1;fontSize=18;" edge="1" parent="1" source="oYAKj_EQ9goThP0TJi5V-21" target="oYAKj_EQ9goThP0TJi5V-14">
          <mxGeometry relative="1" as="geometry" />
        </mxCell>
        <mxCell id="oYAKj_EQ9goThP0TJi5V-42" style="edgeStyle=none;rounded=0;orthogonalLoop=1;jettySize=auto;html=1;fontSize=18;" edge="1" parent="1" source="oYAKj_EQ9goThP0TJi5V-21" target="oYAKj_EQ9goThP0TJi5V-13">
          <mxGeometry relative="1" as="geometry" />
        </mxCell>
        <mxCell id="oYAKj_EQ9goThP0TJi5V-45" style="edgeStyle=none;rounded=0;orthogonalLoop=1;jettySize=auto;html=1;fontSize=18;" edge="1" parent="1" source="oYAKj_EQ9goThP0TJi5V-22" target="oYAKj_EQ9goThP0TJi5V-14">
          <mxGeometry relative="1" as="geometry" />
        </mxCell>
        <mxCell id="oYAKj_EQ9goThP0TJi5V-56" style="edgeStyle=none;rounded=0;orthogonalLoop=1;jettySize=auto;html=1;fontSize=18;" edge="1" parent="1" source="oYAKj_EQ9goThP0TJi5V-22" target="oYAKj_EQ9goThP0TJi5V-23">
          <mxGeometry relative="1" as="geometry" />
        </mxCell>
        <mxCell id="oYAKj_EQ9goThP0TJi5V-22" value="ConcurrentLinkedQueue" style="rounded=1;whiteSpace=wrap;html=1;fontSize=18;" vertex="1" parent="1">
          <mxGeometry x="629.5" y="780" width="200" height="30" as="geometry" />
        </mxCell>
        <mxCell id="oYAKj_EQ9goThP0TJi5V-39" style="edgeStyle=none;rounded=0;orthogonalLoop=1;jettySize=auto;html=1;fontSize=18;" edge="1" parent="1" source="oYAKj_EQ9goThP0TJi5V-23" target="oYAKj_EQ9goThP0TJi5V-20">
          <mxGeometry relative="1" as="geometry" />
        </mxCell>
        <mxCell id="oYAKj_EQ9goThP0TJi5V-58" style="edgeStyle=none;rounded=0;orthogonalLoop=1;jettySize=auto;html=1;entryX=0.553;entryY=0.992;entryDx=0;entryDy=0;entryPerimeter=0;fontSize=18;" edge="1" parent="1" source="oYAKj_EQ9goThP0TJi5V-23" target="oYAKj_EQ9goThP0TJi5V-13">
          <mxGeometry relative="1" as="geometry" />
        </mxCell>
        <mxCell id="oYAKj_EQ9goThP0TJi5V-23" value="BlockingDeque" style="rounded=1;whiteSpace=wrap;html=1;fontSize=18;dashed=1;strokeColor=#6666FF;" vertex="1" parent="1">
          <mxGeometry x="760" y="390" width="180" height="30" as="geometry" />
        </mxCell>
        <mxCell id="oYAKj_EQ9goThP0TJi5V-25" value="Map" style="rounded=1;whiteSpace=wrap;html=1;fontSize=18;strokeColor=#6666FF;dashed=1;" vertex="1" parent="1">
          <mxGeometry x="1010" y="16" width="60" height="30" as="geometry" />
        </mxCell>
        <mxCell id="oYAKj_EQ9goThP0TJi5V-27" value="AbstractCollection" style="rounded=1;whiteSpace=wrap;html=1;fontSize=18;dashed=1;" vertex="1" parent="1">
          <mxGeometry x="970" y="66" width="180" height="30" as="geometry" />
        </mxCell>
        <mxCell id="oYAKj_EQ9goThP0TJi5V-30" style="edgeStyle=none;rounded=0;orthogonalLoop=1;jettySize=auto;html=1;entryX=0.25;entryY=1;entryDx=0;entryDy=0;fontSize=18;" edge="1" parent="1" source="oYAKj_EQ9goThP0TJi5V-29" target="oYAKj_EQ9goThP0TJi5V-7">
          <mxGeometry relative="1" as="geometry" />
        </mxCell>
        <mxCell id="oYAKj_EQ9goThP0TJi5V-29" value="ConcurrentSkipListMap" style="rounded=1;whiteSpace=wrap;html=1;fontSize=18;" vertex="1" parent="1">
          <mxGeometry x="-406" y="300" width="200" height="30" as="geometry" />
        </mxCell>
        <mxCell id="oYAKj_EQ9goThP0TJi5V-21" value="LinkedBlockingQueue" style="rounded=1;whiteSpace=wrap;html=1;fontSize=18;" vertex="1" parent="1">
          <mxGeometry x="550" y="230" width="180" height="30" as="geometry" />
        </mxCell>
        <mxCell id="oYAKj_EQ9goThP0TJi5V-57" style="edgeStyle=none;rounded=0;orthogonalLoop=1;jettySize=auto;html=1;exitX=0.5;exitY=1;exitDx=0;exitDy=0;fontSize=18;" edge="1" parent="1" source="oYAKj_EQ9goThP0TJi5V-21" target="oYAKj_EQ9goThP0TJi5V-21">
          <mxGeometry relative="1" as="geometry" />
        </mxCell>
      </root>
    </mxGraphModel>
  </diagram>
</mxfile>
